<svg width="600" height="633" viewBox="0 0 600 633" fill="none" xmlns="http://www.w3.org/2000/svg">
<path d="M578.292 457.782C580.969 455.732 583.395 453.355 585.596 450.754C587.747 448.153 589.773 445.402 591.423 442.426C598.251 430.545 600.653 416.239 599.852 402.357C599.477 395.379 598.351 388.476 596.701 381.748C595.9 378.372 594.9 375.07 593.874 371.819C593.324 370.193 592.749 368.567 592.199 366.941C591.598 365.416 590.998 363.865 590.398 362.314L589.948 361.164L589.422 359.938C589.072 359.113 588.722 358.313 588.372 357.487C588.022 356.687 587.672 355.887 587.322 355.061L586.346 352.935C584.945 349.909 583.47 346.932 581.919 344.056C581.369 343.006 580.794 342.005 580.218 340.98C576.216 174.13 399.837 186.86 399.837 186.86L399.887 186.935L399.837 186.885C399.937 187.035 411.492 204.668 427.299 249.864C458.313 338.454 528.195 343.456 570.489 366.316C549.98 308.44 452.611 223.077 452.611 223.077C452.611 223.077 542.926 280.803 576.191 347.983L576.642 349.033C576.992 349.834 577.317 350.659 577.642 351.485C577.967 352.31 578.317 353.135 578.643 353.961L579.143 355.186L579.568 356.362C580.118 357.912 580.694 359.463 581.244 361.039C581.769 362.665 582.294 364.29 582.819 365.941C583.77 369.218 584.695 372.544 585.421 375.946C586.896 382.699 587.872 389.627 588.072 396.605C588.547 410.511 585.821 424.743 578.718 436.473C576.992 439.399 574.916 442.1 572.69 444.652C570.439 447.203 567.963 449.504 565.237 451.505C562.51 453.531 559.609 455.281 556.533 456.732C553.456 458.133 550.205 459.208 546.878 459.983C540.2 461.534 533.097 461.559 526.094 460.384C520.992 459.433 515.964 457.807 511.087 455.556C513.563 457.307 516.114 459.008 518.741 460.384C525.344 464.035 532.347 466.461 539.375 467.562C546.403 468.587 553.506 468.412 560.134 466.686C563.461 465.836 566.662 464.686 569.739 463.21C572.765 461.684 575.641 459.858 578.292 457.782Z" fill="#2F5233"/>
<path d="M317.275 629.159C320.401 630.46 323.678 631.385 327.004 631.985C330.306 632.585 333.682 632.961 337.109 632.911C350.74 632.886 364.296 627.833 375.851 620.18C381.679 616.378 387.081 611.951 392.059 607.149C394.56 604.773 396.911 602.247 399.212 599.721C400.337 598.42 401.463 597.119 402.563 595.844C403.589 594.543 404.639 593.243 405.665 591.967L406.44 590.992L407.216 589.916C407.741 589.191 408.266 588.491 408.791 587.79C409.316 587.065 409.842 586.365 410.367 585.639L411.718 583.738C413.643 581.012 415.444 578.236 417.17 575.46C417.795 574.459 418.371 573.434 418.971 572.433C560.86 485.544 461.665 338.503 461.665 338.503C461.59 338.678 452.161 357.536 421.097 393.903C360.194 465.135 390.833 528.413 392.234 576.635C431.902 529.864 456.838 402.507 456.838 402.507C456.838 402.507 452.236 509.905 410.942 572.433L410.242 573.359C409.692 574.059 409.166 574.759 408.616 575.46C408.091 576.135 407.541 576.86 406.99 577.561L406.165 578.611L405.39 579.562C404.314 580.812 403.264 582.088 402.188 583.363C401.063 584.614 399.912 585.889 398.762 587.165C396.411 589.641 393.985 592.117 391.433 594.443C386.331 599.095 380.829 603.422 374.926 607.074C363.196 614.452 349.514 619.179 335.883 618.879C332.482 618.854 329.105 618.379 325.804 617.729C322.477 617.053 319.251 616.028 316.149 614.677C313.048 613.327 310.097 611.651 307.32 609.7C304.544 607.724 301.993 605.448 299.667 602.922C294.99 597.895 291.438 591.742 288.937 585.064C287.211 580.162 286.086 574.959 285.611 569.582C285.336 572.633 285.135 575.685 285.26 578.661C285.411 586.24 286.836 593.543 289.387 600.196C292.039 606.849 295.74 612.902 300.542 617.829C302.918 620.28 305.52 622.506 308.321 624.407C311.147 626.308 314.149 627.883 317.275 629.159Z" fill="#76B947"/>
<path d="M38.9987 487.846C39.4238 491.197 40.2492 494.524 41.3997 497.7C42.5502 500.902 43.9259 504.028 45.6517 506.954C52.5047 518.81 63.6348 528.064 76.0154 534.292C82.2182 537.468 88.7211 539.944 95.3491 541.895C98.6506 542.871 102.002 543.646 105.329 544.371C107.029 544.722 108.705 545.047 110.356 545.347C112.007 545.597 113.632 545.847 115.258 546.122L116.459 546.297L117.784 546.447C118.685 546.547 119.56 546.647 120.435 546.747C121.311 546.847 122.186 546.948 123.062 547.048L125.388 547.273C128.689 547.573 131.991 547.748 135.242 547.873C136.418 547.898 137.593 547.923 138.744 547.923C284.634 627.859 361.819 468.087 361.819 468.087C361.644 468.112 340.66 469.338 293.789 460.484C201.872 443.151 162.629 501.452 121.761 526.763C181.913 537.893 304.218 495.874 304.218 495.874C304.218 495.874 209.3 545.597 134.742 540.92L133.591 540.795C132.716 540.67 131.841 540.545 130.965 540.42C130.09 540.32 129.214 540.194 128.339 540.069L127.013 539.894L125.813 539.669C124.187 539.369 122.561 539.094 120.936 538.794C119.285 538.444 117.609 538.069 115.933 537.718C112.607 536.893 109.28 536.018 106.004 534.967C99.4259 532.891 92.973 530.24 86.8702 526.938C74.6147 520.411 63.7098 510.906 57.1568 498.876C55.4811 495.899 54.1805 492.748 53.105 489.522C52.0295 486.32 51.2792 482.994 50.929 479.617C50.5539 476.266 50.4788 472.839 50.779 469.463C51.1041 466.061 51.7794 462.71 52.8049 459.408C54.7808 452.83 58.3324 446.652 62.8344 441.15C66.1859 437.198 70.1377 433.621 74.5147 430.495C71.7384 431.796 69.0372 433.146 66.5111 434.747C60.0832 438.674 54.4806 443.551 50.0036 449.103C45.6016 454.731 42.2251 460.984 40.3993 467.612C39.4489 470.913 38.8486 474.29 38.5985 477.691C38.3984 481.093 38.5234 484.494 38.9987 487.846Z" fill="#2F5233"/>
<path d="M21.6906 175.155C19.0144 177.206 16.5883 179.582 14.4124 182.183C12.2364 184.784 10.2105 187.536 8.55972 190.512C1.73164 202.392 -0.669446 216.699 0.155931 230.58C0.531096 237.558 1.6316 244.461 3.28234 251.189C4.0827 254.541 5.08316 257.867 6.10862 261.119C6.68388 262.744 7.23413 264.37 7.78437 265.971C8.40965 267.547 8.98491 269.072 9.58519 270.623L10.0354 271.774L10.5856 272.999C10.9108 273.824 11.2859 274.625 11.6361 275.45C11.9863 276.251 12.3364 277.076 12.6866 277.876L13.662 280.002C15.0376 283.029 16.5383 285.98 18.064 288.881C18.6393 289.932 19.1895 290.932 19.7648 291.958C23.7666 458.808 200.146 446.077 200.146 446.077L200.121 446.002L200.146 446.052C200.046 445.902 188.491 428.269 172.684 383.074C141.695 294.484 71.8133 289.482 29.5192 266.621C50.0284 324.497 147.397 409.861 147.397 409.861C147.397 409.861 57.0566 352.135 23.7916 284.954L23.3414 283.904C23.0162 283.079 22.6911 282.278 22.3409 281.453C22.0158 280.628 21.6906 279.802 21.3655 278.977L20.8403 277.751L20.4151 276.576C19.8648 275.025 19.3146 273.474 18.7393 271.899C18.2391 270.273 17.6888 268.647 17.1886 266.996C16.2132 263.72 15.3128 260.393 14.5624 256.992C13.0868 250.239 12.1363 243.311 11.9362 236.333C11.436 222.426 14.1873 208.195 21.2655 196.465C22.9912 193.538 25.0672 190.837 27.3182 188.286C29.5442 185.735 32.0453 183.409 34.7715 181.433C37.4728 179.407 40.3741 177.656 43.4505 176.205C46.5519 174.805 49.7783 173.729 53.1298 172.954C59.8078 171.403 66.886 171.378 73.8892 172.554C78.9915 173.479 84.0438 175.13 88.921 177.381C86.4198 175.605 83.8937 173.929 81.2425 172.554C74.6395 168.902 67.6614 166.476 60.6082 165.376C53.58 164.35 46.5018 164.55 39.8488 166.251C36.5473 167.101 33.3209 168.252 30.2695 169.727C27.2181 171.253 24.3669 173.079 21.6906 175.155Z" fill="#76B947"/>
<mask id="mask0_77_101" style="mask-type:luminance" maskUnits="userSpaceOnUse" x="102" y="0" width="219" height="297">
<path d="M102.529 0H320.227V296.834H102.529V0Z" fill="white"/>
</mask>
<g mask="url(#mask0_77_101)">
<path d="M282.712 3.77763C279.585 2.47705 276.334 1.52662 273.008 0.951357C269.681 0.351086 266.304 -0.0240801 262.903 0.0259392C249.247 0.0509553 235.716 5.10323 224.135 12.7567C218.308 16.5584 212.905 20.9854 207.928 25.7626C205.452 28.1636 203.101 30.6648 200.775 33.2159C199.674 34.5165 198.549 35.8171 197.448 37.0927C196.398 38.3932 195.372 39.6938 194.347 40.9694L193.572 41.9449L192.771 43.0203C192.246 43.7207 191.721 44.446 191.196 45.1463C190.67 45.8716 190.145 46.5719 189.62 47.2973L188.269 49.1981C186.368 51.9244 184.568 54.7006 182.817 57.4769C182.217 58.4773 181.616 59.5028 181.016 60.5032C39.152 147.392 138.322 294.434 138.322 294.434C138.422 294.259 147.851 275.4 178.915 239.034C239.818 167.802 209.154 104.523 207.753 56.3013C168.11 103.047 143.174 230.43 143.174 230.43C143.174 230.43 147.751 123.031 189.07 60.5032L189.745 59.5778C190.295 58.8775 190.845 58.1772 191.371 57.4769C191.921 56.8016 192.471 56.0762 193.021 55.3759L193.822 54.3254L194.622 53.375C195.673 52.1245 196.748 50.8489 197.799 49.5733C198.949 48.2977 200.1 47.0472 201.25 45.7716C203.601 43.2955 206.002 40.8193 208.578 38.4933C213.656 33.8162 219.158 29.5392 225.086 25.8626C236.816 18.4843 250.472 13.7571 264.129 14.0573C267.53 14.0823 270.882 14.5575 274.208 15.2078C277.51 15.8831 280.761 16.9086 283.837 18.2592C286.939 19.6098 289.89 21.2855 292.666 23.2364C295.443 25.1873 297.994 27.4883 300.32 30.0145C304.997 35.0417 308.574 41.1945 311.05 47.8725C312.8 52.7747 313.901 57.9771 314.401 63.3545C314.676 60.3031 314.851 57.2518 314.726 54.2754C314.576 46.697 313.176 39.3937 310.599 32.7407C307.973 26.1127 304.272 20.035 299.469 15.1077C297.093 12.6566 294.467 10.4306 291.666 8.52978C288.84 6.62892 285.838 5.05321 282.712 3.77763Z" fill="#2F5233"/>
</g>
<path d="M561.008 145.09C560.558 141.739 559.732 138.412 558.582 135.236C557.431 132.034 556.081 128.908 554.33 125.981C547.502 114.126 536.372 104.872 523.966 98.6441C517.789 95.4677 511.261 92.9915 504.658 91.0407C501.331 90.0652 498.005 89.2899 494.653 88.5395C492.977 88.2144 491.302 87.8893 489.626 87.5891C488 87.339 486.349 87.0889 484.749 86.8388L483.523 86.6387L482.197 86.4886C481.322 86.3886 480.447 86.2885 479.571 86.1885C478.671 86.0884 477.795 85.9884 476.945 85.8883L474.619 85.6632C471.293 85.3631 468.016 85.188 464.74 85.063C463.589 85.038 462.414 85.013 461.238 85.013C315.372 5.05188 238.162 164.849 238.162 164.849V164.824H238.212L238.162 164.849C238.362 164.824 259.347 163.598 306.218 172.427C398.11 189.785 437.352 131.484 478.221 106.147C418.069 95.0425 295.763 137.061 295.763 137.061C295.763 137.061 390.706 87.339 465.265 92.0161L466.39 92.1412C467.266 92.2662 468.141 92.3913 469.017 92.5163C469.892 92.6164 470.767 92.7414 471.643 92.8665L472.968 93.0416L474.169 93.2667C475.795 93.5668 477.42 93.8419 479.046 94.1421C480.722 94.4922 482.398 94.8674 484.048 95.2176C487.375 96.0429 490.701 96.8933 493.978 97.9688C500.556 100.045 507.034 102.696 513.136 105.997C525.367 112.525 536.272 122.03 542.85 134.06C544.526 137.036 545.801 140.188 546.877 143.414C547.952 146.616 548.702 149.942 549.078 153.319C549.453 156.67 549.503 160.097 549.228 163.473C548.878 166.875 548.202 170.226 547.177 173.528C545.201 180.106 541.674 186.259 537.147 191.761C533.796 195.738 529.869 199.315 525.467 202.441C528.243 201.14 530.969 199.79 533.471 198.189C539.898 194.262 545.501 189.385 549.978 183.808C554.38 178.205 557.757 171.952 559.607 165.324C560.533 162.023 561.158 158.646 561.408 155.245C561.608 151.843 561.458 148.442 561.008 145.09Z" fill="#76B947"/>
</svg>
