<svg width="145" height="134" viewBox="0 0 145 134" fill="none" xmlns="http://www.w3.org/2000/svg">
<path d="M-14.9514 121.889C-13.5633 123.454 -11.9914 124.876 -10.3043 126.109C-8.60855 127.355 -6.83605 128.494 -4.9272 129.391C2.67008 133.119 11.5774 134.026 20.0947 132.94C24.3621 132.438 28.5674 131.455 32.63 130.177C34.6741 129.529 36.6491 128.779 38.6283 128.007C39.6007 127.595 40.573 127.184 41.5367 126.759C42.4575 126.326 43.3911 125.885 44.299 125.461L44.9971 125.14L45.7293 124.76C46.2132 124.509 46.697 124.258 47.1808 124.007C47.6775 123.748 48.1614 123.497 48.6324 123.254L49.904 122.567C51.7149 121.573 53.4571 120.531 55.1819 119.465C55.7811 119.08 56.3931 118.687 56.9964 118.281C159.468 108.966 143.931 0.29448 143.931 0.29448L143.94 0.307315L143.914 0.324584L143.931 0.29448C143.837 0.376397 133.49 8.24968 106.385 19.899C53.2283 42.7127 53.2134 86.1838 40.9838 113.297C75.6912 98.2306 123.96 34.4417 123.96 34.4417C123.96 34.4417 92.3946 92.7385 52.512 116.077L51.8911 116.401C51.3987 116.639 50.9062 116.877 50.4137 117.115C49.9298 117.366 49.4374 117.604 48.9449 117.842L48.2041 118.21L47.5102 118.509C46.5721 118.916 45.6427 119.336 44.7047 119.743C43.7237 120.142 42.7341 120.528 41.766 120.918C39.7737 121.643 37.7727 122.355 35.7198 122.934C31.6269 124.139 27.3868 125.015 23.1147 125.427C14.5837 126.299 5.70557 125.185 -1.82378 121.281C-3.71137 120.332 -5.45401 119.155 -7.11985 117.87C-8.77706 116.599 -10.3106 115.15 -11.6687 113.547C-13.0183 111.956 -14.2269 110.215 -15.2513 108.387C-16.2459 106.52 -17.0563 104.566 -17.6697 102.518C-18.9264 98.4596 -19.2404 94.0842 -18.8164 89.6971C-18.4691 86.499 -17.6884 83.3077 -16.5083 80.1833C-17.4842 81.8093 -18.4172 83.4437 -19.1484 85.1287C-21.092 89.3632 -22.2838 93.8006 -22.6562 98.2088C-22.9815 102.604 -22.5559 106.979 -21.2178 111.02C-20.553 113.034 -19.7083 114.983 -18.6624 116.815C-17.5908 118.63 -16.3395 120.324 -14.9514 121.889Z" fill="#315435" fill-opacity="0.4"/>
</svg>
