<svg width="48" height="48" viewBox="0 0 48 48" fill="none" xmlns="http://www.w3.org/2000/svg">
<rect width="48" height="48" rx="12" fill="#57A273"/>
<path fill-rule="evenodd" clip-rule="evenodd" d="M24 34C29.5228 34 34 29.5228 34 24C34 18.4772 29.5228 14 24 14C18.4772 14 14 18.4772 14 24C14 29.5228 18.4772 34 24 34ZM24.75 19C24.75 18.5858 24.4142 18.25 24 18.25C23.5858 18.25 23.25 18.5858 23.25 19V25C23.25 25.4142 23.5858 25.75 24 25.75H28C28.4142 25.75 28.75 25.4142 28.75 25C28.75 24.5858 28.4142 24.25 28 24.25H24.75V19Z" fill="white"/>
</svg>
