<svg width="48" height="48" viewBox="0 0 48 48" fill="none" xmlns="http://www.w3.org/2000/svg">
<rect width="48" height="48" rx="12" fill="#A4C8FF"/>
<path fill-rule="evenodd" clip-rule="evenodd" d="M28.25 15H19.75V18C19.75 18.4142 19.4142 18.75 19 18.75C18.5858 18.75 18.25 18.4142 18.25 18V15H18C15.7909 15 14 16.7909 14 19V30C14 32.2091 15.7909 34 18 34H30C32.2091 34 34 32.2091 34 30V19C34 16.7909 32.2091 15 30 15H29.75V18C29.75 18.4142 29.4142 18.75 29 18.75C28.5858 18.75 28.25 18.4142 28.25 18V15ZM19 23C19.5523 23 20 22.5523 20 22C20 21.4477 19.5523 21 19 21C18.4477 21 18 21.4477 18 22C18 22.5523 18.4477 23 19 23ZM25 22C25 22.5523 24.5523 23 24 23C23.4477 23 23 22.5523 23 22C23 21.4477 23.4477 21 24 21C24.5523 21 25 21.4477 25 22ZM29 23C29.5523 23 30 22.5523 30 22C30 21.4477 29.5523 21 29 21C28.4477 21 28 21.4477 28 22C28 22.5523 28.4477 23 29 23ZM20 25.5C20 26.0523 19.5523 26.5 19 26.5C18.4477 26.5 18 26.0523 18 25.5C18 24.9477 18.4477 24.5 19 24.5C19.5523 24.5 20 24.9477 20 25.5ZM24 26.5C24.5523 26.5 25 26.0523 25 25.5C25 24.9477 24.5523 24.5 24 24.5C23.4477 24.5 23 24.9477 23 25.5C23 26.0523 23.4477 26.5 24 26.5ZM30 25.5C30 26.0523 29.5523 26.5 29 26.5C28.4477 26.5 28 26.0523 28 25.5C28 24.9477 28.4477 24.5 29 24.5C29.5523 24.5 30 24.9477 30 25.5ZM19 30C19.5523 30 20 29.5523 20 29C20 28.4477 19.5523 28 19 28C18.4477 28 18 28.4477 18 29C18 29.5523 18.4477 30 19 30ZM25 29C25 29.5523 24.5523 30 24 30C23.4477 30 23 29.5523 23 29C23 28.4477 23.4477 28 24 28C24.5523 28 25 28.4477 25 29ZM29 30C29.5523 30 30 29.5523 30 29C30 28.4477 29.5523 28 29 28C28.4477 28 28 28.4477 28 29C28 29.5523 28.4477 30 29 30Z" fill="white"/>
</svg>
