<svg width="48" height="48" viewBox="0 0 48 48" fill="none" xmlns="http://www.w3.org/2000/svg">
<rect width="48" height="48" rx="12" fill="#B1D8B7"/>
<path d="M14 27.616C14 28.463 14.682 29.145 16.045 30.508L17.492 31.955C18.855 33.318 19.537 34 20.384 34C21.231 34 21.914 33.318 23.277 31.955L31.955 23.277C33.318 21.913 34 21.23 34 20.384C34 19.538 33.318 18.855 31.955 17.492L30.508 16.045C29.145 14.682 28.463 14 27.616 14C26.862 14 26.24 14.54 25.152 15.618C25.1822 15.6401 25.2106 15.6645 25.237 15.691L26.652 17.106C26.7236 17.1752 26.7807 17.258 26.82 17.3495C26.8592 17.441 26.8799 17.5395 26.8807 17.6391C26.8815 17.7386 26.8625 17.8374 26.8247 17.9295C26.787 18.0217 26.7312 18.1054 26.6608 18.1758C26.5903 18.2462 26.5066 18.3018 26.4144 18.3395C26.3222 18.3772 26.2234 18.3961 26.1238 18.3952C26.0243 18.3943 25.9259 18.3735 25.8344 18.3342C25.7429 18.2948 25.6602 18.2377 25.591 18.166L24.177 16.752C24.1502 16.7252 24.1255 16.6965 24.103 16.666L23.03 17.739C23.0607 17.7612 23.0895 17.7859 23.116 17.813L25.237 19.934C25.3107 20.0027 25.3698 20.0855 25.4108 20.1775C25.4518 20.2695 25.4738 20.3688 25.4756 20.4695C25.4774 20.5702 25.4588 20.6702 25.4211 20.7636C25.3834 20.857 25.3273 20.9418 25.256 21.013C25.1848 21.0843 25.1 21.1404 25.0066 21.1781C24.9132 21.2158 24.8132 21.2344 24.7125 21.2326C24.6118 21.2308 24.5125 21.2088 24.4205 21.1678C24.3285 21.1268 24.2457 21.0677 24.177 20.994L22.055 18.874C22.0282 18.8469 22.0034 18.8178 21.981 18.787L20.91 19.86C20.94 19.882 20.968 19.907 20.996 19.934L22.41 21.348C22.5425 21.4902 22.6146 21.6782 22.6112 21.8725C22.6077 22.0668 22.529 22.2522 22.3916 22.3896C22.2542 22.527 22.0688 22.6057 21.8745 22.6092C21.6802 22.6126 21.4922 22.5405 21.35 22.408L19.933 20.996C19.9062 20.9692 19.8815 20.9405 19.859 20.91L18.787 21.98C18.817 22.002 18.847 22.027 18.873 22.054L20.995 24.176C21.1316 24.3175 21.2071 24.507 21.2053 24.7037C21.2035 24.9003 21.1245 25.0884 20.9854 25.2274C20.8462 25.3664 20.6581 25.4451 20.4615 25.4468C20.2648 25.4484 20.0754 25.3727 19.934 25.236L17.813 23.115C17.7862 23.0882 17.7615 23.0595 17.739 23.029L16.666 24.102C16.6967 24.1242 16.7255 24.1489 16.752 24.176L18.166 25.59C18.2985 25.7322 18.3706 25.9202 18.3672 26.1145C18.3637 26.3088 18.285 26.4942 18.1476 26.6316C18.0102 26.769 17.8248 26.8477 17.6305 26.8512C17.4362 26.8546 17.2482 26.7825 17.106 26.65L15.69 25.238C15.6636 25.2115 15.6392 25.1831 15.617 25.153C14.539 26.24 14 26.862 14 27.616Z" fill="white"/>
</svg>
