<svg width="48" height="48" viewBox="0 0 48 48" fill="none" xmlns="http://www.w3.org/2000/svg">
<rect width="48" height="48" rx="12" fill="#FED969"/>
<path d="M24.0001 14.25C24.4143 14.25 24.7501 14.5858 24.7501 15V16C24.7501 16.4142 24.4143 16.75 24.0001 16.75C23.5859 16.75 23.2501 16.4142 23.2501 16V15C23.2501 14.5858 23.5859 14.25 24.0001 14.25Z" fill="white"/>
<path d="M30.0001 24C30.0001 27.3137 27.3138 30 24.0001 30C20.6864 30 18.0001 27.3137 18.0001 24C18.0001 20.6863 20.6864 18 24.0001 18C27.3138 18 30.0001 20.6863 30.0001 24Z" fill="white"/>
<path d="M24.7501 32C24.7501 31.5858 24.4143 31.25 24.0001 31.25C23.5859 31.25 23.2501 31.5858 23.2501 32V33C23.2501 33.4142 23.5859 33.75 24.0001 33.75C24.4143 33.75 24.7501 33.4142 24.7501 33V32Z" fill="white"/>
<path d="M32.6496 19.165C32.8568 19.5238 32.7338 19.9825 32.3751 20.1896L31.5091 20.6896C31.1504 20.8967 30.6917 20.7738 30.4846 20.415C30.2775 20.0563 30.4004 19.5976 30.7591 19.3905L31.6251 18.8905C31.9838 18.6834 32.4425 18.8063 32.6496 19.165Z" fill="white"/>
<path d="M15.6251 20.1896C15.2664 19.9825 15.1435 19.5238 15.3506 19.165C15.5577 18.8063 16.0164 18.6834 16.3751 18.8905L17.2412 19.3905C17.5999 19.5976 17.7228 20.0563 17.5157 20.415C17.3086 20.7738 16.8499 20.8967 16.4912 20.6896L15.6251 20.1896Z" fill="white"/>
<path d="M15.3506 28.9751C15.1435 28.6164 15.2664 28.1577 15.6251 27.9506L16.4912 27.4506C16.8499 27.2435 17.3086 27.3664 17.5157 27.7251C17.7228 28.0838 17.5999 28.5425 17.2412 28.7496L16.3751 29.2496C16.0164 29.4567 15.5577 29.3338 15.3506 28.9751Z" fill="white"/>
<path d="M32.3751 27.9506C32.7338 28.1577 32.8568 28.6164 32.6496 28.9751C32.4425 29.3338 31.9838 29.4567 31.6251 29.2496L30.7591 28.7496C30.4004 28.5425 30.2775 28.0838 30.4846 27.7251C30.6917 27.3664 31.1504 27.2435 31.5091 27.4506L32.3751 27.9506Z" fill="white"/>
</svg>
