<svg width="48" height="48" viewBox="0 0 48 48" fill="none" xmlns="http://www.w3.org/2000/svg">
<rect width="48" height="48" rx="12" fill="#B4ADFF"/>
<path d="M27 25V17C27 16.2044 26.6839 15.4413 26.1213 14.8787C25.5587 14.3161 24.7956 14 24 14C23.2044 14 22.4413 14.3161 21.8787 14.8787C21.3161 15.4413 21 16.2044 21 17V25C20.1605 25.6296 19.5403 26.5075 19.2274 27.5092C18.9145 28.5108 18.9247 29.5856 19.2566 30.5811C19.5884 31.5767 20.2251 32.4426 21.0764 33.0562C21.9278 33.6698 22.9506 34 24 34C25.0494 34 26.0722 33.6698 26.9236 33.0562C27.7749 32.4426 28.4116 31.5767 28.7434 30.5811C29.0753 29.5856 29.0855 28.5108 28.7726 27.5092C28.4597 26.5075 27.8395 25.6296 27 25ZM24 16C24.2652 16 24.5196 16.1054 24.7071 16.2929C24.8946 16.4804 25 16.7348 25 17V20H23V17C23 16.7348 23.1054 16.4804 23.2929 16.2929C23.4804 16.1054 23.7348 16 24 16Z" fill="white"/>
</svg>
