<svg width="10" height="11" viewBox="0 0 10 11" fill="none" xmlns="http://www.w3.org/2000/svg">
<path d="M4.4173 1.5026C4.81105 0.975635 5.57828 0.445621 6.86517 0.588609C8.12814 0.728939 8.48033 0.672345 8.49171 0.712445C8.49655 0.729496 8.43976 0.764031 8.36517 0.838623C7.70047 1.35561 6.44665 1.93806 4.77776 2.06385C4.44651 2.08881 4.21846 1.7687 4.4173 1.5026Z" fill="#B1D8B7"/>
<path d="M4.41684 2.62577C2.46211 1.68209 0.812711 3.24847 0.365191 4.81492C-0.282904 7.08343 0.686226 9.7381 2.86519 10.3147C3.43631 10.4658 3.84267 10.3748 4.03868 10.3309C4.06942 10.324 4.09498 10.3183 4.1152 10.3148C4.3259 10.2789 4.5217 10.1433 4.69634 10.0224C4.85499 9.91257 4.99618 9.81483 5.1152 9.81483C5.26972 9.81483 5.4242 9.91031 5.63769 10.0423C5.76966 10.1238 5.92418 10.2193 6.1152 10.3148C6.2583 10.3864 6.61914 10.546 7.36519 10.3148C9.49174 9.65589 10.2526 7.04627 9.61515 4.81492C9.17202 3.26387 7.55045 1.71279 5.79494 2.59875C5.36721 2.81462 4.84831 2.83406 4.41684 2.62577Z" fill="#B1D8B7"/>
</svg>
