<svg width="8" height="13" viewBox="0 0 8 13" fill="none" xmlns="http://www.w3.org/2000/svg">
<path d="M2.39011 1.01667C3.09679 0.470857 3.68864 0.238017 4.6071 0.977318C4.13334 1.24911 3.67804 1.66085 3.32249 2.20841C3.08 1.78757 2.8211 1.45171 2.39011 1.01667Z" fill="#B1D8B7"/>
<path d="M1.0001 4.00022C1.0001 2.58779 0.769198 1.72181 0.51123 1.22565C0.594543 1.24577 0.685519 1.27118 0.782617 1.30254C1.1014 1.40549 1.42767 1.5536 1.67991 1.72066C2.26397 2.30986 2.4544 2.64388 2.88138 3.54724C3.30207 4.43727 3.41017 5.24989 3.49717 6.95492C2.28232 6.73935 1.0001 5.75443 1.0001 4.00022Z" fill="#B1D8B7"/>
<path d="M6.88509 4.66687C6.66221 6.00413 5.41752 6.65839 4.49578 6.90207C4.41378 5.29308 4.31036 4.32305 3.87293 3.313C4.17105 2.56196 4.68513 2.06226 5.18555 1.80039C5.28951 1.76882 5.38306 1.73265 5.46438 1.70024L5.52311 1.67672C5.59595 1.64746 5.65805 1.62251 5.72691 1.59863C5.88356 1.54431 6.06385 1.50023 6.33343 1.50023C6.57986 1.50023 6.80664 1.43919 6.99062 1.37601C7.09837 1.33901 7.22875 1.2866 7.33405 1.24427C7.3874 1.22282 7.43431 1.20396 7.46857 1.19101C7.51869 1.17207 7.55849 1.15865 7.58984 1.14921C7.07173 1.7108 7.05132 2.28319 7.02247 3.09218C7.00671 3.53417 6.98843 4.0468 6.88509 4.66687Z" fill="#B1D8B7"/>
<path d="M4.00016 7.50027C3.94888 7.50027 3.89711 7.49898 3.84496 7.4964C3.8239 7.59245 3.83089 7.69568 3.87117 7.7935C3.97826 8.05348 4.05698 8.35835 4.05966 8.67118C4.06187 8.92889 4.01268 9.19045 3.88626 9.44329C3.29483 10.6261 3.3719 11.6967 3.5258 12.1583C3.61312 12.4203 3.89628 12.5619 4.15825 12.4746C4.42022 12.3873 4.5618 12.1041 4.47448 11.8421C4.40615 11.6371 4.30544 10.841 4.78068 9.89051C4.91978 9.61232 4.99962 9.33023 5.03587 9.05528C5.37432 8.97722 5.76468 8.94151 6.10986 9.1141C6.35685 9.2376 6.65719 9.13748 6.78068 8.8905C6.90418 8.64351 6.80407 8.34317 6.55708 8.21968C6.0042 7.94324 5.42672 7.96403 4.99096 8.04246C4.94271 7.81291 4.87318 7.6005 4.79581 7.41265C4.78627 7.38949 4.77519 7.36742 4.76273 7.34652C4.50597 7.42256 4.26583 7.47095 4.06218 7.49641C4.04161 7.49898 4.02089 7.50027 4.00016 7.50027Z" fill="#B1D8B7"/>
</svg>
