<svg width="13" height="14" viewBox="0 0 13 14" fill="none" xmlns="http://www.w3.org/2000/svg">
<path d="M8.49018 0.948377C8.46165 0.673713 8.21586 0.474184 7.94119 0.502716C7.66653 0.531248 7.467 0.777038 7.49553 1.0517C7.53285 1.4109 7.37292 2.43441 6.23276 3.07372C5.96072 3.22626 5.73657 3.40395 5.55355 3.59748C5.49222 3.45966 5.39581 3.3405 5.2766 3.24472C4.70556 2.78591 3.82496 2.46463 2.59855 2.62981C1.81883 2.73483 1.39236 2.76022 1.17208 2.77334C1.1396 2.77527 1.11156 2.77694 1.08758 2.77856L1.08198 2.77893C1.04681 2.78126 0.97236 2.78618 0.906874 2.80262C0.884998 2.80811 0.846352 2.81902 0.802235 2.84018C0.762296 2.85934 0.679932 2.90464 0.611145 2.99755C0.529318 3.10807 0.496474 3.24608 0.5183 3.38023C0.536614 3.49279 0.587901 3.56981 0.613369 3.60407C0.659786 3.66651 0.71284 3.70697 0.725075 3.7163L0.726419 3.71733C0.743718 3.73062 0.762174 3.7435 0.771742 3.75018L0.773519 3.75142C0.797013 3.76784 0.813005 3.7791 0.830459 3.79323C0.846168 3.80594 0.862634 3.8177 0.879766 3.82842C1.62183 4.29293 2.91323 4.7601 4.57141 4.84793C4.6871 4.85406 4.80077 4.84233 4.90827 4.81434C4.90432 4.83157 4.90054 4.84879 4.89693 4.866C4.78125 5.41734 4.8392 5.94966 4.94617 6.33333H2.00016C1.63197 6.33333 1.3335 6.63181 1.3335 7V7.06219C1.3335 7.46389 1.37888 7.8643 1.46878 8.25581L2.47362 12.6317C2.6127 13.2374 3.15172 13.6667 3.77314 13.6667H7.56052C8.18194 13.6667 8.72096 13.2374 8.86003 12.6317L9.86488 8.25581C9.95478 7.8643 10.0002 7.46389 10.0002 7.06219V7C10.0002 6.63181 9.70168 6.33333 9.3335 6.33333H5.97033C5.97033 6.27759 5.96094 6.2209 5.94114 6.1654C5.85512 5.92423 5.78552 5.50076 5.87562 5.07134C5.9239 4.84123 6.01745 4.60876 6.18381 4.39653C6.32705 4.57143 6.53089 4.70038 6.76715 4.75802C8.99154 5.30067 10.8671 5.1643 11.9837 4.83261C12.003 4.82685 12.022 4.81993 12.0406 4.81187C12.0731 4.79773 12.1019 4.78751 12.137 4.77512L12.1394 4.77429C12.1541 4.76912 12.1787 4.76041 12.2018 4.75108L12.2035 4.7504C12.2201 4.74373 12.2842 4.71794 12.3471 4.66903C12.3814 4.64233 12.4519 4.58132 12.4999 4.47725C12.557 4.35331 12.5622 4.21103 12.5127 4.08213C12.471 3.97369 12.4034 3.90748 12.3693 3.87776C12.3318 3.845 12.2966 3.82355 12.2758 3.81176C12.2117 3.77532 12.1317 3.74726 12.0866 3.73145L12.0815 3.72967C12.0521 3.71932 12.0175 3.7075 11.9774 3.69376C11.704 3.6001 11.1711 3.41755 10.2201 3.01054C9.43606 2.67496 8.73274 2.55005 8.12046 2.56216C8.45686 1.94302 8.52973 1.32914 8.49018 0.948377Z" fill="#B1D8B7"/>
</svg>
