<svg width="5" height="11" viewBox="0 0 5 11" fill="none" xmlns="http://www.w3.org/2000/svg">
<path d="M3.37478 1C3.37478 0.792893 3.20688 0.625 2.99978 0.625C2.79267 0.625 2.62478 0.792893 2.62478 1V1.25L2.22478 0.95C2.05909 0.825736 1.82404 0.859315 1.69978 1.025C1.57551 1.19069 1.60909 1.42574 1.77478 1.55L2.13389 1.81933C1.33268 2.20112 0.836068 3.09413 1.02418 4.0347L1.48406 6.33409C1.5047 6.43731 1.56778 6.52711 1.65789 6.58153C1.74799 6.63596 1.85682 6.65001 1.9578 6.62025C2.10373 6.57724 2.29724 6.53437 2.49024 6.51984C2.60625 6.51111 2.73708 6.51138 2.86418 6.53553C2.98866 6.55919 3.14194 6.61201 3.2648 6.73487C3.41125 6.88132 3.41125 7.11875 3.2648 7.2652C3.14007 7.38993 2.9485 7.40876 2.80405 7.32019C2.74178 7.28201 2.66972 7.26284 2.59671 7.26504C2.58142 7.2655 2.56472 7.26636 2.54654 7.26773C2.47088 7.27342 2.39006 7.28642 2.31289 7.3032C2.23587 7.31994 2.16763 7.33932 2.11823 7.35579C2.10298 7.36087 2.0878 7.36489 2.07275 7.36792C1.86991 7.40876 1.73848 7.60619 1.77906 7.80908L2.14166 9.62209C2.32923 10.56 3.6701 10.56 3.85768 9.62209L4.77025 5.05922C4.78976 4.96168 4.76971 4.86039 4.71453 4.77763C4.65935 4.69487 4.57354 4.63743 4.476 4.61794C4.43332 4.60941 4.39105 4.59313 4.35089 4.56803C4.2627 4.51292 4.0794 4.43336 3.86067 4.41051C3.64696 4.38818 3.4188 4.42129 3.20765 4.56205C3.03533 4.67694 2.8025 4.63037 2.68762 4.45805C2.57274 4.28572 2.6193 4.0529 2.79163 3.93802C3.40376 3.52993 4.06127 3.63152 4.49001 3.80374C4.61245 3.85293 4.75173 3.83414 4.85676 3.75428C4.96179 3.67442 5.01713 3.54524 5.00247 3.41411C4.92483 2.71957 4.48714 2.11562 3.86562 1.81937L4.22478 1.55C4.39046 1.42574 4.42404 1.19069 4.29978 1.025C4.17551 0.859315 3.94046 0.825736 3.77478 0.95L3.37478 1.25V1Z" fill="#B1D8B7"/>
</svg>
