<svg width="20" height="24" viewBox="0 0 20 24" fill="none" xmlns="http://www.w3.org/2000/svg">
<path fill-rule="evenodd" clip-rule="evenodd" d="M10.8069 5.95976C10.7228 5.97119 10.6372 5.96439 10.556 5.93982C10.4747 5.91525 10.3997 5.87349 10.3361 5.81736C10.2724 5.76124 10.2215 5.69208 10.187 5.61457C10.1524 5.53705 10.1349 5.45301 10.1356 5.36813C10.1796 4.28044 10.5793 3.23723 11.2734 2.39864C12.004 1.53055 12.9858 0.910435 14.0836 0.623769C14.1703 0.602742 14.2607 0.60199 14.3477 0.621572C14.4348 0.641154 14.5161 0.680542 14.5854 0.736675C14.6548 0.792808 14.7102 0.864174 14.7475 0.945227C14.7848 1.02628 14.8029 1.11484 14.8004 1.20401C14.7385 2.29483 14.3411 3.3399 13.6626 4.19626C12.9648 5.12053 11.9459 5.74973 10.8069 5.95976ZM16.9734 12.5814C16.9734 9.48675 19.2489 8.79273 19.2489 8.12146C19.2489 7.4502 17.2806 5.94838 15.1986 5.94838C13.1165 5.94838 12.3087 6.92684 10.8979 6.92684C9.48713 6.92684 8.33802 5.94838 6.5859 5.94838C5.62102 6.00158 4.6842 6.29214 3.85855 6.79427C3.03291 7.29641 2.34399 7.99459 1.85291 8.82686C1.14576 10.0484 0.794973 11.4437 0.840328 12.8545C0.840328 17.8491 4.4242 23.3785 7.06375 23.3785C8.54281 23.3785 8.91827 22.4114 10.9548 22.4114C12.9914 22.4114 13.3554 23.3785 14.7435 23.3785C17.6106 23.3785 19.9998 17.6898 19.9998 17.6102C19.9988 17.4995 19.9661 17.3914 19.9056 17.2986C19.8452 17.2059 19.7594 17.1324 19.6585 17.0868C18.8414 16.6536 18.1589 16.0044 17.6854 15.2099C17.212 14.4154 16.9657 13.5062 16.9734 12.5814Z" fill="#1F1F1F"/>
</svg>
