<svg width="20" height="19" viewBox="0 0 20 19" fill="none" xmlns="http://www.w3.org/2000/svg">
<path fill-rule="evenodd" clip-rule="evenodd" d="M14.25 0H5.75V3C5.75 3.41421 5.41421 3.75 5 3.75C4.58579 3.75 4.25 3.41421 4.25 3V0H4C1.79086 0 0 1.79086 0 4V15C0 17.2091 1.79086 19 4 19H16C18.2091 19 20 17.2091 20 15V4C20 1.79086 18.2091 0 16 0H15.75V3C15.75 3.41421 15.4142 3.75 15 3.75C14.5858 3.75 14.25 3.41421 14.25 3V0ZM5 8C5.55228 8 6 7.55228 6 7C6 6.44772 5.55228 6 5 6C4.44772 6 4 6.44772 4 7C4 7.55228 4.44772 8 5 8ZM11 7C11 7.55228 10.5523 8 10 8C9.44771 8 9 7.55228 9 7C9 6.44772 9.44771 6 10 6C10.5523 6 11 6.44772 11 7ZM15 8C15.5523 8 16 7.55228 16 7C16 6.44772 15.5523 6 15 6C14.4477 6 14 6.44772 14 7C14 7.55228 14.4477 8 15 8ZM6 10.5C6 11.0523 5.55228 11.5 5 11.5C4.44772 11.5 4 11.0523 4 10.5C4 9.94771 4.44772 9.5 5 9.5C5.55228 9.5 6 9.94771 6 10.5ZM10 11.5C10.5523 11.5 11 11.0523 11 10.5C11 9.94771 10.5523 9.5 10 9.5C9.44771 9.5 9 9.94771 9 10.5C9 11.0523 9.44771 11.5 10 11.5ZM16 10.5C16 11.0523 15.5523 11.5 15 11.5C14.4477 11.5 14 11.0523 14 10.5C14 9.94771 14.4477 9.5 15 9.5C15.5523 9.5 16 9.94771 16 10.5ZM5 15C5.55228 15 6 14.5523 6 14C6 13.4477 5.55228 13 5 13C4.44772 13 4 13.4477 4 14C4 14.5523 4.44772 15 5 15ZM11 14C11 14.5523 10.5523 15 10 15C9.44771 15 9 14.5523 9 14C9 13.4477 9.44771 13 10 13C10.5523 13 11 13.4477 11 14ZM15 15C15.5523 15 16 14.5523 16 14C16 13.4477 15.5523 13 15 13C14.4477 13 14 13.4477 14 14C14 14.5523 14.4477 15 15 15Z" fill="#2F5233"/>
</svg>
