<svg width="25" height="24" viewBox="0 0 25 24" fill="none" xmlns="http://www.w3.org/2000/svg">
<path d="M12.5 5.50006C14.0273 5.49913 15.5056 6.03883 16.673 7.02356L19.943 3.90956C18.6877 2.75211 17.1799 1.90316 15.5393 1.43009C13.8987 0.957025 12.1704 0.872862 10.4916 1.18428C8.81279 1.4957 7.22967 2.19413 5.86787 3.22415C4.50608 4.25416 3.40311 5.5874 2.64648 7.11806L6.33298 9.95956C6.76292 8.6631 7.58986 7.53478 8.69669 6.73441C9.80351 5.93404 11.1341 5.5022 12.5 5.50006Z" fill="#D94F3D"/>
<path d="M6 12.0002C6.00092 11.3065 6.11335 10.6176 6.333 9.95966L2.6465 7.11816C1.89242 8.63511 1.5 10.3061 1.5 12.0002C1.5 13.6942 1.89242 15.3652 2.6465 16.8822L6.333 14.0407C6.11335 13.3827 6.00092 12.6938 6 12.0002Z" fill="#F2C042"/>
<path d="M23.0498 10H12.5498V14.5H18.4998C18.1459 15.7724 17.3349 16.8694 16.2223 17.581L19.8803 20.401C22.2178 18.303 23.5913 14.8915 23.0498 10Z" fill="#5085ED"/>
<path d="M16.221 17.581C15.0905 18.2281 13.8017 18.5464 12.5 18.5C11.1341 18.4979 9.80351 18.066 8.69669 17.2657C7.58986 16.4653 6.76292 15.337 6.33298 14.0405L2.64648 16.882C3.55705 18.7176 4.96171 20.2627 6.70246 21.3435C8.4432 22.4243 10.451 22.998 12.5 23C15.1962 23.0733 17.8243 22.1473 19.879 20.4L16.221 17.581Z" fill="#57A75C"/>
</svg>
