<svg width="19" height="18" viewBox="0 0 19 18" fill="none" xmlns="http://www.w3.org/2000/svg">
<path d="M13.7843 1.39952C13.8539 1.35422 13.9138 1.29556 13.9606 1.22695C14.0074 1.15834 14.0401 1.08113 14.0568 0.999794C14.0736 0.918459 14.074 0.834612 14.0581 0.753108C14.0422 0.671603 14.0103 0.594061 13.9642 0.524968C13.9182 0.455876 13.8589 0.396606 13.7897 0.350589C13.7206 0.304573 13.6431 0.272725 13.5615 0.256887C13.48 0.24105 13.3962 0.241538 13.3149 0.258324C13.2335 0.27511 13.1563 0.307861 13.0878 0.354679L10.6473 1.98221C10.2028 1.80474 9.72858 1.71381 9.25 1.71431C8.75605 1.71431 8.2847 1.80891 7.8527 1.98221L5.41223 0.354679C5.27366 0.264486 5.10512 0.232584 4.94317 0.2659C4.78123 0.299216 4.63896 0.39506 4.54725 0.532627C4.45554 0.670195 4.42178 0.838383 4.45332 1.00068C4.48485 1.16298 4.57912 1.3063 4.71567 1.39952L6.69149 2.71645C6.09664 3.26587 5.69497 3.99257 5.54619 4.78854C5.91868 4.69264 6.30182 4.64426 6.68646 4.64454H11.8144C12.2079 4.64454 12.5896 4.69477 12.9538 4.78854C12.805 3.99257 12.4034 3.26587 11.8085 2.71645L13.7843 1.39952ZM0.25 10.9236C0.25 10.7571 0.316154 10.5974 0.43391 10.4796C0.551665 10.3619 0.711376 10.2957 0.877907 10.2957H3.38953V9.19728C3.38953 8.49738 3.60721 7.84854 3.97893 7.31524L1.90014 6.48305C1.74897 6.41877 1.629 6.29781 1.56598 6.14611C1.50295 5.99441 1.50189 5.82405 1.56301 5.67158C1.62413 5.5191 1.74257 5.39665 1.89293 5.33049C2.04329 5.26432 2.21359 5.25972 2.3673 5.31766L4.99279 6.36752C5.5044 6.06076 6.08994 5.89926 6.68646 5.90035H11.8135C12.4331 5.90035 13.0124 6.07114 13.5072 6.36752L16.1327 5.31766C16.2096 5.28496 16.2922 5.26794 16.3758 5.2676C16.4593 5.26725 16.5421 5.28358 16.6193 5.31564C16.6965 5.3477 16.7664 5.39483 16.8252 5.45429C16.8839 5.51374 16.9301 5.58431 16.9612 5.66187C16.9923 5.73942 17.0076 5.82241 17.0062 5.90595C17.0048 5.98949 16.9868 6.07192 16.9531 6.1484C16.9195 6.22488 16.8709 6.29387 16.8102 6.35134C16.7496 6.4088 16.678 6.45358 16.5999 6.48305L14.5211 7.31524C14.9058 7.86732 15.1116 8.52434 15.1105 9.19728V10.2957H17.6221C17.7886 10.2957 17.9483 10.3619 18.0661 10.4796C18.1838 10.5974 18.25 10.7571 18.25 10.9236C18.25 11.0901 18.1838 11.2499 18.0661 11.3676C17.9483 11.4854 17.7886 11.5515 17.6221 11.5515H15.1105V11.7608C15.1121 12.7147 14.8798 13.6544 14.434 14.4977L16.5999 15.3642C16.7545 15.4261 16.8782 15.547 16.9438 15.7001C17.0093 15.8533 17.0113 16.0262 16.9494 16.1809C16.8874 16.3355 16.7666 16.4592 16.6134 16.5248C16.4603 16.5903 16.2873 16.5924 16.1327 16.5304L13.7115 15.5609C12.7405 16.7027 11.3683 17.4283 9.87791 17.5878V11.7608C9.87791 11.5943 9.81175 11.4346 9.694 11.3168C9.57624 11.1991 9.41653 11.1329 9.25 11.1329C9.08347 11.1329 8.92376 11.1991 8.806 11.3168C8.68825 11.4346 8.62209 11.5943 8.62209 11.7608V17.5878C7.1319 17.4284 5.7597 16.7032 4.78851 15.5618L2.36814 16.5296C2.29156 16.5602 2.2097 16.5755 2.12721 16.5746C2.04472 16.5736 1.96324 16.5564 1.8874 16.5239C1.81156 16.4915 1.74286 16.4444 1.68522 16.3854C1.62757 16.3264 1.58212 16.2566 1.55144 16.18C1.52077 16.1035 1.50548 16.0216 1.50644 15.9391C1.50741 15.8566 1.52461 15.7751 1.55707 15.6993C1.58952 15.6235 1.6366 15.5547 1.69561 15.4971C1.75462 15.4395 1.8244 15.394 1.90098 15.3633L4.06767 14.4968C3.62144 13.6539 3.3886 12.7145 3.38953 11.7608V11.5515H0.877907C0.711376 11.5515 0.551665 11.4854 0.43391 11.3676C0.316154 11.2499 0.25 11.0901 0.25 10.9236Z" fill="#2F5233"/>
</svg>
