<svg width="14" height="14" viewBox="0 0 16 16" fill="none" xmlns="http://www.w3.org/2000/svg">
<path d="M12.1778 10.9111L14.5333 8.53333C15.0074 8.05926 15.3704 7.51852 15.6222 6.91111C15.8741 6.3037 16 5.66667 16 5C16 3.60741 15.515 2.42578 14.5449 1.45511C13.5748 0.484445 12.3932 -0.00059205 11 5.42336e-07C10.3333 5.42336e-07 9.6963 0.125926 9.08889 0.377778C8.48148 0.62963 7.94074 0.992593 7.46667 1.46667L5.08889 3.82222L12.1778 10.9111ZM5 16C5.66667 16 6.3037 15.8741 6.91111 15.6222C7.51852 15.3704 8.05926 15.0074 8.53333 14.5333L10.9111 12.1778L3.82222 5.08889L1.46667 7.46667C0.992593 7.94074 0.62963 8.48148 0.377778 9.08889C0.125926 9.6963 0 10.3333 0 11C0 12.3926 0.485333 13.5739 1.456 14.544C2.42667 15.5141 3.608 15.9994 5 16Z" fill="#2F5233"/>
</svg>
