<svg width="12" height="12" viewBox="0 0 12 12" fill="none" xmlns="http://www.w3.org/2000/svg">
<path d="M5.31653 0C8.25126 0 10.6331 2.38181 10.6331 5.31653C10.6331 8.25126 8.25126 10.6331 5.31653 10.6331C2.38181 10.6331 0 8.25126 0 5.31653C0 2.38181 2.38181 0 5.31653 0ZM5.31653 9.45161C7.60087 9.45161 9.45161 7.60087 9.45161 5.31653C9.45161 3.0316 7.60087 1.18145 5.31653 1.18145C3.0316 1.18145 1.18145 3.0316 1.18145 5.31653C1.18145 7.60087 3.0316 9.45161 5.31653 9.45161ZM10.3288 9.49355L12 11.1641L11.1641 12L9.49355 10.3288L10.3288 9.49355Z" fill="white"/>
</svg>
