<svg width="24" height="24" viewBox="0 0 24 24" fill="none" xmlns="http://www.w3.org/2000/svg">
<path d="M16.9908 3.53254C17.1895 3.33381 17.4591 3.22217 17.7402 3.22217C18.0213 3.22217 18.2909 3.33381 18.4897 3.53254L19.9843 5.02721L19.9886 5.03145L19.9939 5.03569L21.4886 6.53036C21.6873 6.72926 21.7989 6.99899 21.7988 7.28019C21.7987 7.56139 21.6869 7.83103 21.488 8.0298C21.2891 8.22856 21.0194 8.34017 20.7382 8.34008C20.457 8.33998 20.1873 8.22817 19.9886 8.02927L19.2391 7.27981L13.9919 12.5271L15.4908 14.026C15.6877 14.2228 15.844 14.4566 15.9506 14.7139C16.0572 14.9712 16.1121 15.2469 16.1121 15.5254C16.1121 15.8039 16.0572 16.0797 15.9506 16.3369C15.844 16.5942 15.6877 16.828 15.4908 17.0248L12.847 19.6686C12.151 20.3647 11.2748 20.8532 10.3168 21.0794C9.35873 21.3056 8.35662 21.2605 7.42275 20.9492L6.41676 20.6142C5.9484 20.4579 5.52284 20.1948 5.17381 19.8456C4.82477 19.4963 4.56185 19.0707 4.40585 18.6022L4.07088 17.5973C3.75955 16.6634 3.71445 15.6613 3.94062 14.7032C4.1668 13.7452 4.65531 12.869 5.35142 12.173L7.99518 9.52818C8.19206 9.33122 8.42582 9.17497 8.68309 9.06838C8.94037 8.96178 9.21613 8.90691 9.49462 8.90691C9.77311 8.90691 10.0489 8.96178 10.3061 9.06838C10.5634 9.17497 10.7972 9.33122 10.9941 9.52818L12.493 11.0281L17.7402 5.7809L16.9908 5.03145C16.792 4.83266 16.6804 4.56308 16.6804 4.28199C16.6804 4.0009 16.792 3.73132 16.9908 3.53254Z" fill="#B1B1B1"/>
</svg>
