<svg width="151" height="134" viewBox="0 0 151 134" fill="none" xmlns="http://www.w3.org/2000/svg">
<path d="M160.178 11.5016C158.789 9.93684 157.217 8.51441 155.53 7.28125C153.835 6.03526 152.062 4.89685 150.153 3.9993C142.556 0.271606 133.649 -0.635892 125.131 0.450284C120.864 0.952634 116.659 1.93532 112.596 3.21349C110.552 3.86121 108.577 4.61163 106.598 5.38352C105.625 5.79515 104.653 6.20677 103.689 6.63122C102.769 7.06408 101.835 7.50558 100.927 7.92981L100.229 8.2502L99.4968 8.63079C99.0129 8.88165 98.5291 9.13251 98.0452 9.38336C97.5485 9.64285 97.0647 9.8937 96.5937 10.1359L95.3221 10.8234C93.5111 11.8177 91.769 12.859 90.0442 13.9259C89.445 14.3102 88.833 14.7032 88.2296 15.109C-14.2417 24.424 1.29464 133.096 1.29464 133.096L1.28601 133.083L1.31168 133.066L1.29464 133.096C1.3887 133.014 11.7361 125.141 38.8412 113.491C91.9977 90.6777 92.0127 47.2066 104.242 20.0938C69.5348 35.1597 21.2662 98.9486 21.2662 98.9486C21.2662 98.9486 52.8314 40.6519 92.7141 17.3133L93.335 16.989C93.8274 16.7509 94.3199 16.5129 94.8124 16.2749C95.2962 16.0241 95.7887 15.786 96.2812 15.548L97.022 15.1803L97.7159 14.8813C98.6539 14.4742 99.5833 14.0541 100.521 13.6469C101.502 13.2482 102.492 12.8622 103.46 12.4721C105.452 11.7473 107.453 11.0354 109.506 10.4563C113.599 9.25097 117.839 8.37541 122.111 7.96314C130.642 7.09146 139.521 8.20504 147.05 12.1089C148.937 13.0581 150.68 14.2352 152.346 15.52C154.003 16.7919 155.537 18.2402 156.895 19.8437C158.244 21.4344 159.453 23.1758 160.477 25.0038C161.472 26.8706 162.282 28.8239 162.896 30.8725C164.152 34.9308 164.466 39.3062 164.042 43.6932C163.695 46.8914 162.914 50.0827 161.734 53.207C162.71 51.5811 163.643 49.9467 164.374 48.2617C166.318 44.0272 167.51 39.5898 167.882 35.1815C168.208 30.7863 167.782 26.4114 166.444 22.3705C165.779 20.3565 164.934 18.4076 163.888 16.5754C162.817 14.7605 161.566 13.0664 160.178 11.5016Z" fill="#76B947" fill-opacity="0.4"/>
</svg>
